<svg xmlns="http://www.w3.org/2000/svg" width="122" height="48.724" viewBox="0 0 122 48.724">
  <g id="Logo" transform="translate(-33.042 -17.825)">
    <path id="Path_9" data-name="Path 9" d="M92.761,54.621a6.324,6.324,0,0,0-2.543-1.494,10.6,10.6,0,0,0-2.995-.434H81.051V72.106H86.6a9.757,9.757,0,0,0,3.377-.59,7.624,7.624,0,0,0,2.765-1.763,8.367,8.367,0,0,0,1.873-3,12.3,12.3,0,0,0,.7-4.354,13.966,13.966,0,0,0-.711-4.828A7.922,7.922,0,0,0,92.761,54.621Z" transform="translate(-30.517 -22.165)" fill="#fff"/>
    <path id="Path_10" data-name="Path 10" d="M33.042,17.825V66.339l121.474-7.861V17.825Zm32.579,27.61A9.722,9.722,0,0,1,63.238,49a9.5,9.5,0,0,1-3.4,2.022,12.133,12.133,0,0,1-3.913.638h-7.1V28.81h8.03a11.48,11.48,0,0,1,3.377.528A7.977,7.977,0,0,1,63.38,31.2a9.623,9.623,0,0,1,2.259,3.534,15.3,15.3,0,0,1,.86,5.5A13.95,13.95,0,0,1,65.621,45.435Zm12.6,6.223H76.511V35.437l.149-.16c.211-.23.415-.441.609-.634l.947-.947Zm0-18.818L77.845,33c-.2.084-.371.16-.536.24l-.8.393V28.81h1.705ZM90.353,51.658H88.647V35.24l.153-.16c.215-.23.419-.437.612-.627l.94-.911Zm0-18.891-.339.142c-.2.08-.393.164-.576.251l-.791.375V28.81h1.705ZM115.47,51.658H98.634V50.1l14.351-19.569H99.439V28.81H115.23v1.559L100.853,49.942H115.47Zm23.26,0H121.894V50.1l.109-.146,14.243-19.423H122.7V28.813H138.49v1.556L124.113,49.942H138.73Z" transform="translate(0 0)" fill="#fff"/>
    <path id="Path_13" data-name="Path 13" d="M33.042,17.825V66.548l122-7.895V17.825Z" transform="translate(0 0)" fill="#fff" opacity="0"/>
  </g>
</svg>
